#!OML:ASF H:\ManfredObstacles\Project 1\Capture day 2\Session 1\male.ASF
:FULLY-SPECIFIED
:DEGREES
398
root 2.90057 9.01432 -5.92188 -121.374 -5.10116 160.568
lowerback 17.4409 2.44137 -11.6409
upperback 11.1285 -0.0430269 -0.429675
thorax 2.26869 -1.21658 6.07846
lowerneck -30.0515 -4.54427 5.47262
upperneck 11.8219 -8.69922 1.79268
head 8.29467 -3.63567 -1.53486
rclavicle 6.36111e-014 -7.7526e-015
rhumerus 39.1138 -16.8237 -87.673
rradius 40.875
rwrist 22.1837
rhand -9.86963 0.488188
rfingers 7.12502
rthumb 16.1092 -28.8623
lclavicle 6.36111e-014 -7.7526e-015
lhumerus 48.1198 -29.6857 51.9393
lradius 23.1561
lwrist -41.7268
lhand -39.0342 29.4678
lfingers 7.12502
lthumb -12.0367 59.1016
rfemur -65.1298 -5.74477 18.6113
rtibia 119.944
rfoot -26.3828 -24.2461
rtoes -35.6687
lfemur -58.3281 10.4925 -12.7697
ltibia 112.36
lfoot -3.8813 15.9825
ltoes -9.89559
399
root 2.97597 9.02983 -5.93896 -121.414 -5.51288 160.106
lowerback 17.2755 2.54319 -11.969
upperback 11.237 0.0696309 -0.323454
thorax 2.46576 -1.19966 6.35665
lowerneck -30.0732 -4.79114 5.29363
upperneck 11.8202 -8.97288 1.87497
head 8.30317 -3.76085 -1.52009
rclavicle 5.88403e-014 -4.63168e-014
rhumerus 39.3764 -17.4228 -87.891
rradius 39.9339
rwrist 22.4855
rhand -10.1248 0.667537
rfingers 7.12502
rthumb 15.8634 -28.7026
lclavicle 5.88403e-014 -4.63168e-014
lhumerus 48.9407 -30.2511 50.9012
lradius 23.469
lwrist -41.5669
lhand -37.4156 27.6318
lfingers 7.12502
lthumb -10.4755 57.3508
rfemur -64.6766 -5.9965 19.1628
rtibia 119.479
rfoot -26.6969 -24.417
rtoes -35.523
lfemur -61.2184 11.809 -12.3536
ltibia 115.283
lfoot -5.28895 16.6671
ltoes -9.8647
400
root 3.04562 9.0449 -5.95779 -121.56 -5.94686 159.668
lowerback 17.1781 2.69353 -12.2613
upperback 11.3869 0.236227 -0.171178
thorax 2.6611 -1.16137 6.65758
lowerneck -30.0786 -5.06286 5.07398
upperneck 11.8041 -9.26076 1.95109
head 8.30589 -3.89604 -1.50278
rclavicle -4.45278e-014 1.31198e-014
rhumerus 39.664 -18.0888 -87.9632
rradius 39.018
rwrist 22.7398
rhand -10.3284 0.793145
rfingers 7.12502
rthumb 15.6673 -28.5925
lclavicle -4.45278e-014 1.31198e-014
lhumerus 49.686 -30.676 50.2016
lradius 23.8848
lwrist -41.506
lhand -35.8744 25.6704
lfingers 7.12502
lthumb -8.9886 55.4589
rfemur -64.0679 -6.245 19.6459
rtibia 118.923
rfoot -27.0209 -24.6688
rtoes -35.6509
lfemur -64.1107 13.2312 -12.0402
ltibia 118.122
lfoot -6.72933 17.2352
ltoes -9.87477
401
root 3.10957 9.05915 -5.97769 -121.784 -6.39765 159.243
lowerback 17.1353 2.87878 -12.5095
upperback 11.5551 0.444113 0.000142386
thorax 2.83702 -1.10293 6.94959
lowerneck -30.054 -5.3406 4.88018
upperneck 11.785 -9.55917 2.00148
head 8.30086 -4.03816 -1.49871
rclavicle 4.13472e-014 3.37934e-014
rhumerus 39.923 -18.8154 -87.927
rradius 38.1243
rwrist 22.9214
rhand -10.533 0.873909
rfingers 7.12502
rthumb 15.4704 -28.5271
lclavicle 4.13472e-014 3.37934e-014
lhumerus 50.3315 -31.0302 49.7628
lradius 24.428
lwrist -41.4431
lhand -34.4677 23.6196
lfingers 7.12502
lthumb -7.63104 53.4619
rfemur -63.3375 -6.48493 20.0444
rtibia 118.273
rfoot -27.3705 -24.8679
rtoes -35.943
lfemur -67.054 14.7525 -11.8716
ltibia 120.868
lfoot -8.18556 17.7179
ltoes -9.9567
402
root 3.1677 9.07225 -5.99803 -122.059 -6.86967 158.838
lowerback 17.1078 3.07664 -12.6787
upperback 11.753 0.673096 0.168606
thorax 3.02915 -1.03446 7.19138
lowerneck -30.0412 -5.60536 4.72661
upperneck 11.7633 -9.85488 2.0399
head 8.29486 -4.17859 -1.50455
rclavicle -3.18055e-015 -1.39149e-014
rhumerus 40.1857 -19.5787 -87.8378
rradius 37.2322
rwrist 23.0543
rhand -10.7756 0.923155
rfingers 7.12502
rthumb 15.2367 -28.4957
lclavicle -3.18055e-015 -1.39149e-014
lhumerus 50.8619 -31.2822 49.5585
lradius 25.1155
lwrist -41.3869
lhand -33.2664 21.5919
lfingers 7.12502
lthumb -6.47139 51.473
rfemur -62.521 -6.70622 20.3688
rtibia 117.539
rfoot -27.7044 -24.9459
rtoes -36.3571
lfemur -70.1137 16.3706 -11.8837
ltibia 123.524
lfoot -9.64425 18.1381
ltoes -10.0687
403
root 3.21982 9.0837 -6.01798 -122.373 -7.36047 158.456
lowerback 17.0779 3.27955 -12.7659
upperback 11.9769 0.916976 0.33673
thorax 3.24452 -0.958487 7.38474
lowerneck -30.053 -5.85517 4.59684
upperneck 11.7558 -10.1406 2.06846
head 8.29644 -4.31335 -1.51694
rclavicle 0 3.97569e-016
rhumerus 40.4495 -20.3716 -87.6898
rradius 36.3322
rwrist 23.199
rhand -11.0482 0.975388
rfingers 7.12502
rthumb 14.974 -28.4633
lclavicle 0 3.97569e-016
lhumerus 51.2679 -31.4585 49.5339
lradius 25.9692
lwrist -41.2801
lhand -32.2921 19.6395
lfingers 7.12502
lthumb -5.53075 49.5473
rfemur -61.627 -6.90207 20.6297
rtibia 116.739
rfoot -28.0058 -24.9228
rtoes -36.749
lfemur -73.3356 18.0722 -12.1248
ltibia 126.086
lfoot -11.0908 18.5339
ltoes -10.1856
404
root 3.26568 9.09319 -6.03678 -122.698 -7.87065 158.107
lowerback 17.0043 3.47843 -12.7626
upperback 12.2277 1.17226 0.505326
thorax 3.50707 -0.876828 7.52647
lowerneck -30.082 -6.09205 4.46127
upperneck 11.757 -10.4117 2.11327
head 8.30571 -4.43894 -1.52182
rclavicle -2.22639e-014 1.45113e-014
rhumerus 40.7273 -21.1896 -87.4961
rradius 35.4337
rwrist 23.3754
rhand -11.3223 1.02443
rfingers 7.12502
rthumb 14.71 -28.4337
lclavicle -2.22639e-014 1.45113e-014
lhumerus 51.4952 -31.5126 49.7765
lradius 26.9861
lwrist -41.2712
lhand -31.5807 17.8619
lfingers 7.12502
lthumb -4.84384 47.7865
rfemur -60.7096 -7.06581 20.8464
rtibia 115.908
rfoot -28.2994 -24.6808
rtoes -37.035
lfemur -76.7921 19.8346 -12.6475
ltibia 128.55
lfoot -12.4962 18.9368
ltoes -10.3262
405
root 3.30513 9.10079 -6.05417 -123.037 -8.40238 157.809
lowerback 16.8974 3.65794 -12.6551
upperback 12.4963 1.41821 0.671246
thorax 3.80639 -0.797071 7.60893
lowerneck -30.1128 -6.30119 4.32289
upperneck 11.7728 -10.6462 2.16117
head 8.32173 -4.54639 -1.52062
rclavicle -9.54166e-015 5.1684e-015
rhumerus 41.0097 -21.9871 -87.2789
rradius 34.5426
rwrist 23.6148
rhand -11.5832 1.06472
rfingers 7.12502
rthumb 14.4586 -28.4116
lclavicle -9.54166e-015 5.1684e-015
lhumerus 51.4991 -31.4413 50.2505
lradius 28.1834
lwrist -41.3299
lhand -31.1041 16.2644
lfingers 7.12502
lthumb -4.38361 46.199
rfemur -59.7658 -7.18712 21.0484
rtibia 115.072
rfoot -28.5909 -24.37
rtoes -37.3367
lfemur -80.5118 21.6125 -13.4914
ltibia 130.899
lfoot -13.7974 19.3325
ltoes -10.4442
406
root 3.33783 9.10575 -6.07002 -123.363 -8.93886 157.588
lowerback 16.7033 3.82371 -12.4624
upperback 12.7856 1.66834 0.850798
thorax 4.17243 -0.715065 7.65974
lowerneck -30.1965 -6.49568 4.13919
upperneck 11.8365 -10.8513 2.21952
head 8.36634 -4.63771 -1.50835
rclavicle -8.5875e-014 2.5842e-015
rhumerus 41.3125 -22.7518 -87.0122
rradius 33.6693
rwrist 23.9132
rhand -11.8182 1.08755
rfingers 7.12502
rthumb 14.2322 -28.4048
lclavicle -8.5875e-014 2.5842e-015
lhumerus 51.3338 -31.2691 50.8864
lradius 29.556
lwrist -41.4299
lhand -30.8647 14.9551
lfingers 7.12502
lthumb -4.15251 44.8944
rfemur -58.8498 -7.24128 21.2615
rtibia 114.271
rfoot -28.9042 -24.0373
rtoes -37.6186
lfemur -84.5601 23.3619 -14.7142
ltibia 133.122
lfoot -14.9622 19.6789
ltoes -10.5663
407
root 3.36341 9.10768 -6.0839 -123.655 -9.45009 157.442
lowerback 16.4163 3.95158 -12.2084
upperback 13.0649 1.89043 1.01182
thorax 4.58305 -0.642155 7.66291
lowerneck -30.2613 -6.65024 3.94517
upperneck 11.9192 -10.9996 2.28232
head 8.41697 -4.70176 -1.48508
rclavicle -1.39944e-013 1.55052e-014
rhumerus 41.5986 -23.4164 -86.7334
rradius 32.8144
rwrist 24.2313
rhand -12.0235 1.0691
rfingers 7.12502
rthumb 14.0344 -28.4371
lclavicle -1.39944e-013 1.55052e-014
lhumerus 50.9893 -31.036 51.5462
lradius 31.09
lwrist -41.4367
lhand -30.7944 13.8732
lfingers 7.12502
lthumb -4.0846 43.8138
rfemur -58.0133 -7.22814 21.4763
rtibia 113.542
rfoot -29.261 -23.7377
rtoes -37.9328
lfemur -88.9742 24.9214 -16.3712
ltibia 135.2
lfoot -15.8813 19.9733
ltoes -10.6554
408
root 3.38118 9.10723 -6.09735 -123.942 -9.92571 157.384
lowerback 16.0592 4.05385 -11.8797
upperback 13.3454 2.09442 1.15832
thorax 5.03735 -0.573507 7.61405
lowerneck -30.3626 -6.7876 3.70188
upperneck 12.0509 -11.1137 2.36315
head 8.49503 -4.747 -1.44647
rclavicle -4.13472e-014 -3.27995e-014
rhumerus 41.8726 -23.9828 -86.4199
rradius 31.9673
rwrist 24.5844
rhand -12.2418 1.03097
rfingers 7.12502
rthumb 13.8239 -28.4897
lclavicle -4.13472e-014 -3.27995e-014
lhumerus 50.5688 -30.7943 52.0997
lradius 32.7539
lwrist -41.2019
lhand -30.7973 12.9544
lfingers 7.12502
lthumb -4.08742 42.8949
rfemur -57.2146 -7.14936 21.7023
rtibia 112.886
rfoot -29.6535 -23.5528
rtoes -38.3389
lfemur -93.679 26.0953 -18.415
ltibia 137.1
lfoot -16.5315 20.1623
ltoes -10.7019
409
root 3.39102 9.10443 -6.11036 -124.209 -10.3464 157.415
lowerback 15.6328 4.09841 -11.4828
upperback 13.6096 2.23669 1.2536
thorax 5.52709 -0.527116 7.48234
lowerneck -30.4886 -6.87572 3.43793
upperneck 12.2448 -11.1634 2.47333
head 8.60319 -4.75625 -1.3883
rclavicle -2.8625e-014 3.91606e-014
rhumerus 42.1202 -24.3785 -86.1526
rradius 31.1377
rwrist 24.9267
rhand -12.4649 0.964526
rfingers 7.12502
rthumb 13.6089 -28.5706
lclavicle -2.8625e-014 3.91606e-014
lhumerus 50.0725 -30.5459 52.4058
lradius 34.4838
lwrist -40.649
lhand -30.8095 12.1406
lfingers 7.12502
lthumb -4.09915 42.0809
rfemur -56.4836 -7.01031 21.9395
rtibia 112.309
rfoot -30.0427 -23.4865
rtoes -38.8166
lfemur -98.6217 26.6419 -20.7458
ltibia 138.795
lfoot -16.7646 20.2566
ltoes -10.7616
410
root 3.39287 9.10071 -6.12425 -124.479 -10.6975 157.525
lowerback 15.1353 4.14953 -11.0624
upperback 13.8758 2.39468 1.34018
thorax 6.05762 -0.470442 7.3303
lowerneck -30.6176 -6.9679 3.15293
upperneck 12.4508 -11.2098 2.57836
head 8.71729 -4.76506 -1.32869
rclavicle 0 3.77691e-015
rhumerus 42.356 -24.7379 -85.8525
rradius 30.3114
rwrist 25.2556
rhand -12.7123 0.902485
rfingers 7.12502
rthumb 13.3705 -28.6485
lclavicle 0 3.77691e-015
lhumerus 49.6271 -30.3817 52.5109
lradius 36.2044
lwrist -39.8358
lhand -30.799 11.4073
lfingers 7.12502
lthumb -4.08907 41.3478
rfemur -55.8057 -6.83734 22.1723
rtibia 111.797
rfoot -30.4035 -23.4735
rtoes -39.2853
lfemur -103.615 26.3194 -23.1559
ltibia 140.241
lfoot -16.4967 20.2866
ltoes -10.776
411
root 3.38184 9.09956 -6.13787 -124.61 -11.0777 157.529
lowerback 14.4962 4.11225 -10.5361
upperback 14.1236 2.46577 1.41914
thorax 6.66671 -0.445812 7.12694
lowerneck -30.7123 -7.07322 2.83154
upperneck 12.6318 -11.2556 2.67939
head 8.81949 -4.77794 -1.26314
rclavicle 5.725e-014 6.57977e-014
rhumerus 42.5972 -25.0877 -85.5068
rradius 29.4843
rwrist 25.5671
rhand -12.9801 0.860244
rfingers 7.12502
rthumb 13.1123 -28.7075
lclavicle 5.725e-014 6.57977e-014
lhumerus 49.2506 -30.2973 52.4662
lradius 37.8514
lwrist -38.8886
lhand -30.7299 10.7385
lfingers 7.12502
lthumb -4.02232 40.6803
rfemur -55.3164 -6.95173 22.3419
rtibia 111.336
rfoot -30.6484 -23.4921
rtoes -39.8347
lfemur -108.565 24.3393 -25.2961
ltibia 141.373
lfoot -15.3385 20.3654
ltoes -10.7624
